<svg id="SvgjsSvg1152" width="827" height="269" xmlns="http://www.w3.org/2000/svg" version="1.1" xmlns:xlink="http://www.w3.org/1999/xlink" xmlns:svgjs="http://svgjs.com/svgjs"><defs id="SvgjsDefs1153"><marker id="SvgjsMarker1174" markerWidth="16" markerHeight="12" refX="16" refY="6" viewBox="0 0 16 12" orient="auto" markerUnits="userSpaceOnUse"><path id="SvgjsPath1175" d="M0,2 L14,6 L0,11 L0,2" fill="#323232" stroke="#323232" stroke-width="2"></path></marker><marker id="SvgjsMarker1202" markerWidth="16" markerHeight="12" refX="16" refY="6" viewBox="0 0 16 12" orient="auto" markerUnits="userSpaceOnUse"><path id="SvgjsPath1203" d="M0,2 L14,6 L0,11 L0,2" fill="#323232" stroke="#323232" stroke-width="2"></path></marker><marker id="SvgjsMarker1210" markerWidth="16" markerHeight="12" refX="16" refY="6" viewBox="0 0 16 12" orient="auto" markerUnits="userSpaceOnUse"><path id="SvgjsPath1211" d="M0,2 L14,6 L0,11 L0,2" fill="#323232" stroke="#323232" stroke-width="2"></path></marker><marker id="SvgjsMarker1218" markerWidth="16" markerHeight="12" refX="16" refY="6" viewBox="0 0 16 12" orient="auto" markerUnits="userSpaceOnUse"><path id="SvgjsPath1219" d="M0,2 L14,6 L0,11 L0,2" fill="#323232" stroke="#323232" stroke-width="2"></path></marker><marker id="SvgjsMarker1248" markerWidth="16" markerHeight="12" refX="16" refY="6" viewBox="0 0 16 12" orient="auto" markerUnits="userSpaceOnUse"><path id="SvgjsPath1249" d="M0,2 L14,6 L0,11 L0,2" fill="#323232" stroke="#323232" stroke-width="2"></path></marker><marker id="SvgjsMarker1252" markerWidth="16" markerHeight="12" refX="16" refY="6" viewBox="0 0 16 12" orient="auto" markerUnits="userSpaceOnUse"><path id="SvgjsPath1253" d="M0,2 L14,6 L0,11 L0,2" fill="#323232" stroke="#323232" stroke-width="2"></path></marker><marker id="SvgjsMarker1256" markerWidth="16" markerHeight="12" refX="16" refY="6" viewBox="0 0 16 12" orient="auto" markerUnits="userSpaceOnUse"><path id="SvgjsPath1257" d="M0,2 L14,6 L0,11 L0,2" fill="#323232" stroke="#323232" stroke-width="2"></path></marker><marker id="SvgjsMarker1272" markerWidth="16" markerHeight="12" refX="16" refY="6" viewBox="0 0 16 12" orient="auto" markerUnits="userSpaceOnUse"><path id="SvgjsPath1273" d="M0,2 L14,6 L0,11 L0,2" fill="#323232" stroke="#323232" stroke-width="2"></path></marker><marker id="SvgjsMarker1276" markerWidth="16" markerHeight="12" refX="16" refY="6" viewBox="0 0 16 12" orient="auto" markerUnits="userSpaceOnUse"><path id="SvgjsPath1277" d="M0,2 L14,6 L0,11 L0,2" fill="#323232" stroke="#323232" stroke-width="2"></path></marker><marker id="SvgjsMarker1288" markerWidth="16" markerHeight="12" refX="16" refY="6" viewBox="0 0 16 12" orient="auto" markerUnits="userSpaceOnUse"><path id="SvgjsPath1289" d="M0,2 L14,6 L0,11 L0,2" fill="#323232" stroke="#323232" stroke-width="2"></path></marker><marker id="SvgjsMarker1292" markerWidth="16" markerHeight="12" refX="16" refY="6" viewBox="0 0 16 12" orient="auto" markerUnits="userSpaceOnUse"><path id="SvgjsPath1293" d="M0,2 L14,6 L0,11 L0,2" fill="#323232" stroke="#323232" stroke-width="2"></path></marker><marker id="SvgjsMarker1296" markerWidth="16" markerHeight="12" refX="16" refY="6" viewBox="0 0 16 12" orient="auto" markerUnits="userSpaceOnUse"><path id="SvgjsPath1297" d="M0,2 L14,6 L0,11 L0,2" fill="#323232" stroke="#323232" stroke-width="2"></path></marker></defs><g id="SvgjsG1154" transform="translate(198,36)"><path id="SvgjsPath1155" d="M 0 4Q 0 0 4 0L 109 0Q 113 0 113 4L 113 31Q 113 35 109 35L 4 35Q 0 35 0 31Z" stroke="#323232" stroke-width="2" fill-opacity="1" fill="#ffffff"></path><g id="SvgjsG1156"><text id="SvgjsText1157" font-family="微软雅黑" text-anchor="middle" font-size="13px" width="44" fill="#323232" font-weight="400" align="middle" anchor="middle" family="微软雅黑" size="13px" weight="400" font-style="" y="7.55" transform="rotate(0)"><tspan id="SvgjsTspan1158" dy="16" x="56.5"><tspan id="SvgjsTspan1159" style="text-decoration:;">node??</tspan></tspan></text></g></g><g id="SvgjsG1160" transform="translate(198,126)"><path id="SvgjsPath1161" d="M 0 4Q 0 0 4 0L 109 0Q 113 0 113 4L 113 31Q 113 35 109 35L 4 35Q 0 35 0 31Z" stroke="#323232" stroke-width="2" fill-opacity="1" fill="#ffffff"></path><g id="SvgjsG1162"><text id="SvgjsText1163" font-family="微软雅黑" text-anchor="middle" font-size="13px" width="54" fill="#323232" font-weight="400" align="middle" anchor="middle" family="微软雅黑" size="13px" weight="400" font-style="" y="7.55" transform="rotate(0)"><tspan id="SvgjsTspan1164" dy="16" x="56.5"><tspan id="SvgjsTspan1165" style="text-decoration:;">localhost</tspan></tspan></text></g></g><g id="SvgjsG1166" transform="translate(198,209)"><path id="SvgjsPath1167" d="M 0 4Q 0 0 4 0L 109 0Q 113 0 113 4L 113 31Q 113 35 109 35L 4 35Q 0 35 0 31Z" stroke="#323232" stroke-width="2" fill-opacity="1" fill="#ffffff"></path><g id="SvgjsG1168"><text id="SvgjsText1169" font-family="微软雅黑" text-anchor="middle" font-size="13px" width="44" fill="#323232" font-weight="400" align="middle" anchor="middle" family="微软雅黑" size="13px" weight="400" font-style="" y="7.55" transform="rotate(0)"><tspan id="SvgjsTspan1170" dy="16" x="56.5"><tspan id="SvgjsTspan1171" style="text-decoration:;">node??</tspan></tspan></text></g></g><g id="SvgjsG1172"><path id="SvgjsPath1173" d="M124 143.5L161 143.5L161 226.5L198 226.5" stroke="#323232" stroke-width="2" fill="none" marker-end="url(#SvgjsMarker1174)"></path></g><g id="SvgjsG1176" transform="translate(357,36)"><path id="SvgjsPath1177" d="M 0 4Q 0 0 4 0L 109 0Q 113 0 113 4L 113 31Q 113 35 109 35L 4 35Q 0 35 0 31Z" stroke="#323232" stroke-width="2" fill-opacity="1" fill="#ffffff"></path><g id="SvgjsG1178"><text id="SvgjsText1179" font-family="微软雅黑" text-anchor="middle" font-size="13px" width="82" fill="#323232" font-weight="400" align="middle" anchor="middle" family="微软雅黑" size="13px" weight="400" font-style="" y="-0.44999999999999996" transform="rotate(0)"><tspan id="SvgjsTspan1180" dy="16" x="56.5"><tspan id="SvgjsTspan1181" style="text-decoration:;">copy udf.py</tspan></tspan><tspan id="SvgjsTspan1182" dy="16" x="56.5"><tspan id="SvgjsTspan1183" style="text-decoration:;">python udf.py</tspan></tspan></text></g></g><g id="SvgjsG1184" transform="translate(357,126)"><path id="SvgjsPath1185" d="M 0 4Q 0 0 4 0L 109 0Q 113 0 113 4L 113 31Q 113 35 109 35L 4 35Q 0 35 0 31Z" stroke="#323232" stroke-width="2" fill-opacity="1" fill="#ffffff"></path><g id="SvgjsG1186"><text id="SvgjsText1187" font-family="微软雅黑" text-anchor="middle" font-size="13px" width="79" fill="#323232" font-weight="400" align="middle" anchor="middle" family="微软雅黑" size="13px" weight="400" font-style="" y="-0.44999999999999996" transform="rotate(0)"><tspan id="SvgjsTspan1188" dy="16" x="56.5"><tspan id="SvgjsTspan1189" style="text-decoration:;">python </tspan></tspan><tspan id="SvgjsTspan1190" dy="16" x="56.5"><tspan id="SvgjsTspan1191" style="text-decoration:;">/dir/../udf.py</tspan></tspan></text></g></g><g id="SvgjsG1192" transform="translate(357,209)"><path id="SvgjsPath1193" d="M 0 4Q 0 0 4 0L 109 0Q 113 0 113 4L 113 31Q 113 35 109 35L 4 35Q 0 35 0 31Z" stroke="#323232" stroke-width="2" fill-opacity="1" fill="#ffffff"></path><g id="SvgjsG1194"><text id="SvgjsText1195" font-family="微软雅黑" text-anchor="middle" font-size="13px" width="82" fill="#323232" font-weight="400" align="middle" anchor="middle" family="微软雅黑" size="13px" weight="400" font-style="" y="-0.44999999999999996" transform="rotate(0)"><tspan id="SvgjsTspan1196" dy="16" x="56.5"><tspan id="SvgjsTspan1197" style="text-decoration:;">copy udf.py</tspan></tspan><tspan id="SvgjsTspan1198" dy="16" x="56.5"><tspan id="SvgjsTspan1199" style="text-decoration:;">python udf.py</tspan></tspan></text></g></g><g id="SvgjsG1200"><path id="SvgjsPath1201" d="M311 53.5L334 53.5L334 53.5L357 53.5" stroke="#323232" stroke-width="2" fill="none" marker-end="url(#SvgjsMarker1202)"></path><rect id="SvgjsRect1204" width="42" height="16" x="313" y="24" fill="#ffffff"></rect><text id="SvgjsText1205" font-family="微软雅黑" text-anchor="middle" font-size="13px" width="42" fill="#323232" font-weight="400" align="top" anchor="middle" family="微软雅黑" size="13px" weight="400" font-style="" y="22.05" transform="rotate(0)"><tspan id="SvgjsTspan1206" dy="16" x="334"><tspan id="SvgjsTspan1207" style="text-decoration:;">2，4行</tspan></tspan></text></g><g id="SvgjsG1208"><path id="SvgjsPath1209" d="M311 143.5L334 143.5L334 143.5L357 143.5" stroke="#323232" stroke-width="2" fill="none" marker-end="url(#SvgjsMarker1210)"></path><rect id="SvgjsRect1212" width="39" height="16" x="315.5" y="114" fill="#ffffff"></rect><text id="SvgjsText1213" font-family="微软雅黑" text-anchor="middle" font-size="13px" width="39" fill="#323232" font-weight="400" align="top" anchor="middle" family="微软雅黑" size="13px" weight="400" font-style="" y="112.05" transform="rotate(0)"><tspan id="SvgjsTspan1214" dy="16" x="335"><tspan id="SvgjsTspan1215" style="text-decoration:;">1，3行</tspan></tspan></text></g><g id="SvgjsG1216"><path id="SvgjsPath1217" d="M311 226.5L334 226.5L334 226.5L357 226.5" stroke="#323232" stroke-width="2" fill="none" marker-end="url(#SvgjsMarker1218)"></path><rect id="SvgjsRect1220" width="21" height="16" x="321.5" y="205" fill="#ffffff"></rect><text id="SvgjsText1221" font-family="微软雅黑" text-anchor="middle" font-size="13px" width="21" fill="#323232" font-weight="400" align="top" anchor="middle" family="微软雅黑" size="13px" weight="400" font-style="" y="203.05" transform="rotate(0)"><tspan id="SvgjsTspan1222" dy="16" x="332"><tspan id="SvgjsTspan1223" style="text-decoration:;">5行</tspan></tspan></text></g><g id="SvgjsG1224" transform="translate(516,126)"><path id="SvgjsPath1225" d="M 0 4Q 0 0 4 0L 109 0Q 113 0 113 4L 113 31Q 113 35 109 35L 4 35Q 0 35 0 31Z" stroke="#323232" stroke-width="2" fill-opacity="1" fill="#ffffff"></path><g id="SvgjsG1226"><text id="SvgjsText1227" font-family="微软雅黑" text-anchor="middle" font-size="13px" width="50" fill="#323232" font-weight="400" align="middle" anchor="middle" family="微软雅黑" size="13px" weight="400" font-style="" y="7.55" transform="rotate(0)"><tspan id="SvgjsTspan1228" dy="16" x="56.5"><tspan id="SvgjsTspan1229" style="text-decoration:;">Success</tspan></tspan></text></g></g><g id="SvgjsG1230" transform="translate(516,209)"><path id="SvgjsPath1231" d="M 0 4Q 0 0 4 0L 109 0Q 113 0 113 4L 113 31Q 113 35 109 35L 4 35Q 0 35 0 31Z" stroke="#323232" stroke-width="2" fill-opacity="1" fill="#ffffff"></path><g id="SvgjsG1232"><text id="SvgjsText1233" font-family="微软雅黑" text-anchor="middle" font-size="13px" width="88" fill="#323232" font-weight="400" align="middle" anchor="middle" family="微软雅黑" size="13px" weight="400" font-style="" y="-0.44999999999999996" transform="rotate(0)"><tspan id="SvgjsTspan1234" dy="16" x="56.5"><tspan id="SvgjsTspan1235" style="text-decoration:;">ModuleNotFou</tspan></tspan><tspan id="SvgjsTspan1236" dy="16" x="56.5"><tspan id="SvgjsTspan1237" style="text-decoration:;">ndError</tspan></tspan></text></g></g><g id="SvgjsG1238" transform="translate(516,36)"><path id="SvgjsPath1239" d="M 0 4Q 0 0 4 0L 109 0Q 113 0 113 4L 113 31Q 113 35 109 35L 4 35Q 0 35 0 31Z" stroke="#323232" stroke-width="2" fill-opacity="1" fill="#ffffff"></path><g id="SvgjsG1240"><text id="SvgjsText1241" font-family="微软雅黑" text-anchor="middle" font-size="13px" width="88" fill="#323232" font-weight="400" align="middle" anchor="middle" family="微软雅黑" size="13px" weight="400" font-style="" y="-0.44999999999999996" transform="rotate(0)"><tspan id="SvgjsTspan1242" dy="16" x="56.5"><tspan id="SvgjsTspan1243" style="text-decoration:;">ModuleNotFou</tspan></tspan><tspan id="SvgjsTspan1244" dy="16" x="56.5"><tspan id="SvgjsTspan1245" style="text-decoration:;">ndError</tspan></tspan></text></g></g><g id="SvgjsG1246"><path id="SvgjsPath1247" d="M470 53.5L493 53.5L493 53.5L516 53.5" stroke="#323232" stroke-width="2" fill="none" marker-end="url(#SvgjsMarker1248)"></path></g><g id="SvgjsG1250"><path id="SvgjsPath1251" d="M470 143.5L493 143.5L493 143.5L516 143.5" stroke="#323232" stroke-width="2" fill="none" marker-end="url(#SvgjsMarker1252)"></path></g><g id="SvgjsG1254"><path id="SvgjsPath1255" d="M470 226.5L493 226.5L493 226.5L516 226.5" stroke="#323232" stroke-width="2" fill="none" marker-end="url(#SvgjsMarker1256)"></path></g><g id="SvgjsG1258" transform="translate(25,57)"><path id="SvgjsPath1259" d="M 0 4Q 0 0 4 0L 95 0Q 99 0 99 4L 99 169Q 99 173 95 173L 4 173Q 0 173 0 169Z" stroke="#323232" stroke-width="2" fill-opacity="1" fill="#ffffff"></path><g id="SvgjsG1260"><text id="SvgjsText1261" font-family="微软雅黑" text-anchor="middle" font-size="13px" width="78" fill="#323232" font-weight="400" align="middle" anchor="middle" family="微软雅黑" size="13px" weight="400" font-style="" y="52.55" transform="rotate(0)"><tspan id="SvgjsTspan1262" dy="16" x="49.5"><tspan id="SvgjsTspan1263" style="text-decoration:;">本地提交</tspan></tspan><tspan id="SvgjsTspan1264" dy="16" x="49.5"><tspan id="SvgjsTspan1265" style="text-decoration:;">transform本</tspan></tspan><tspan id="SvgjsTspan1266" dy="16" x="49.5"><tspan id="SvgjsTspan1267" style="text-decoration:;">地分发上传脚</tspan></tspan><tspan id="SvgjsTspan1268" dy="16" x="49.5"><tspan id="SvgjsTspan1269" style="text-decoration:;">本</tspan></tspan></text></g></g><g id="SvgjsG1270"><path id="SvgjsPath1271" d="M124 143.5L161 143.5L161 143.5L198 143.5" stroke="#323232" stroke-width="2" fill="none" marker-end="url(#SvgjsMarker1272)"></path></g><g id="SvgjsG1274"><path id="SvgjsPath1275" d="M124 143.5L161 143.5L161 53.5L198 53.5" stroke="#323232" stroke-width="2" fill="none" marker-end="url(#SvgjsMarker1276)"></path></g><g id="SvgjsG1278" transform="translate(689,126)"><path id="SvgjsPath1279" d="M 0 4Q 0 0 4 0L 109 0Q 113 0 113 4L 113 31Q 113 35 109 35L 4 35Q 0 35 0 31Z" stroke="#323232" stroke-width="2" fill-opacity="1" fill="#ffffff"></path><g id="SvgjsG1280"><text id="SvgjsText1281" font-family="微软雅黑" text-anchor="middle" font-size="13px" width="90" fill="#323232" font-weight="400" align="middle" anchor="middle" family="微软雅黑" size="13px" weight="400" font-style="" y="-0.44999999999999996" transform="rotate(0)"><tspan id="SvgjsTspan1282" dy="16" x="56.5"><tspan id="SvgjsTspan1283" style="text-decoration:;">Operator close </tspan></tspan><tspan id="SvgjsTspan1284" dy="16" x="56.5"><tspan id="SvgjsTspan1285" style="text-decoration:;">error</tspan></tspan></text></g></g><g id="SvgjsG1286"><path id="SvgjsPath1287" d="M629 53.5L745.5 53.5L745.5 126" stroke="#323232" stroke-width="2" fill="none" marker-end="url(#SvgjsMarker1288)"></path></g><g id="SvgjsG1290"><path id="SvgjsPath1291" d="M629 143.5L659 143.5L659 143.5L689 143.5" stroke="#323232" stroke-width="2" fill="none" marker-end="url(#SvgjsMarker1292)"></path></g><g id="SvgjsG1294"><path id="SvgjsPath1295" d="M629 226.5L745.5 226.5L745.5 161" stroke="#323232" stroke-width="2" fill="none" marker-end="url(#SvgjsMarker1296)"></path></g></svg>